# xmcd CD database file
# Copyright (C) 1997 Ti Kan
#
# Track frame offsets:
#  180
#  9860
#  27525
#  42141
#  52337
#  72853
#  87302
#  101444
#  116139
#  128855
#  151037
#  161170
#  176506
#
# Disc length: 2593 seconds
#
# Revision: 1
# Processed by: cddbd v1.4b41PL1 Copyright (c) Steve Scherf et al.
# Submitted via: CDWizzard Release:4.24
#
DISCID=a60a1f0d
DTITLE=Various Artist - Country, Blues and Folk Sampler, Vol. 4
DYEAR=1900
DGENRE=
TTITLE0=Rawhide
TTITLE1=I'm the One
TTITLE2=Sleepwalk
TTITLE3=Early in the Morning
TTITLE4=Happy Landings
TTITLE5=That High Lonesome Sound
TTITLE6=Saying It All For You
TTITLE7=Desert Wind
TTITLE8=Who Needs More
TTITLE9=Furthur and Furthur Away
TTITLE10=Slow Boat to China
TTITLE11=I Want My Goodbye Back
TTITLE12=Bigger Than the Beatles
EXTD=
EXTT0=Riders in the Sky
EXTT1=Primich, Gary
EXTT2=Weed, Joe
EXTT3=Harris, Corey
EXTT4=Stone, Gordon
EXTT5=Rowan, Peter
EXTT6=Wallace, Kate
EXTT7=Salamander Crossing
EXTT8=Stuart, Dan
EXTT9=Wheeler, Cheryl
EXTT10=Jimmy Rivers and the Cherokees
EXTT11=Herndon, Ty 
EXTT12=Diffie, Joe
PLAYORDER=
